<svg xmlns="http://www.w3.org/2000/svg" width="512" height="512" viewBox="0 0 512 512">
  <defs>
    <radialGradient id="bg512" cx="74%" cy="20%" r="88%">
      <stop offset="0" stop-color="#172b51"/>
      <stop offset="0.48" stop-color="#0b1322"/>
      <stop offset="1" stop-color="#070a0f"/>
    </radialGradient>
    <linearGradient id="orbit512" x1="88" y1="390" x2="416" y2="92">
      <stop stop-color="#4f8cff" stop-opacity="0"/>
      <stop offset="0.6" stop-color="#4f8cff" stop-opacity="0.7"/>
      <stop offset="1" stop-color="#a9c6ff"/>
    </linearGradient>
    <filter id="glow512" x="-80%" y="-80%" width="260%" height="260%">
      <feGaussianBlur stdDeviation="13"/>
    </filter>
  </defs>
  <rect width="512" height="512" fill="#070a0f"/>
  <rect width="512" height="512" rx="112" fill="url(#bg512)"/>
  <circle cx="404" cy="108" r="46" fill="#4f8cff" opacity="0.22" filter="url(#glow512)"/>
  <path d="M120 360A144 144 0 0 1 376 100" fill="none" stroke="url(#orbit512)" stroke-width="12" stroke-linecap="round"/>
  <path d="M256 120 L292 220 L392 256 L292 292 L256 392 L220 292 L120 256 L220 220 Z" fill="#f7faff"/>
  <path d="M404 74l9 25 25 9-25 9-9 25-9-25-25-9 25-9 9-25z" fill="#8db5ff"/>
  <circle cx="404" cy="108" r="7" fill="#fff"/>
</svg>
