<svg xmlns="http://www.w3.org/2000/svg" width="512" height="512" viewBox="0 0 512 512">
  <defs>
    <radialGradient id="bg512" cx="74%" cy="20%" r="88%">
      <stop offset="0" stop-color="#172b51"/>
      <stop offset="0.48" stop-color="#0b1322"/>
      <stop offset="1" stop-color="#070a0f"/>
    </radialGradient>
    <linearGradient id="orbit512" x1="88" y1="390" x2="416" y2="92">
      <stop stop-color="#4f8cff" stop-opacity="0"/>
      <stop offset="0.6" stop-color="#4f8cff" stop-opacity="0.7"/>
      <stop offset="1" stop-color="#a9c6ff"/>
    </linearGradient>
    <filter id="glow512" x="-80%" y="-80%" width="260%" height="260%">
      <feGaussianBlur stdDeviation="13"/>
    </filter>
  </defs>
  <rect width="512" height="512" fill="#070a0f"/>
  <rect width="512" height="512" rx="112" fill="url(#bg512)"/>
  <circle cx="386" cy="117" r="48" fill="#4f8cff" opacity="0.2" filter="url(#glow512)"/>
  <path d="M93 286C109 165 199 89 315 91c42 1 79 14 108 38" fill="none" stroke="url(#orbit512)" stroke-width="11" stroke-linecap="round"/>
  <path d="M163 389V139h106c73 0 120 39 120 102s-47 104-120 104h-51" fill="none" stroke="#f7faff" stroke-width="55" stroke-linecap="round" stroke-linejoin="round"/>
  <path d="M386 73l13 31 31 13-31 13-13 31-13-31-31-13 31-13 13-31z" fill="#8db5ff"/>
  <circle cx="386" cy="117" r="8" fill="#fff"/>
</svg>
